<svg width="304" height="106" viewBox="0 0 304 106" fill="none" xmlns="http://www.w3.org/2000/svg">
    <path d="M234.983 74.5823H68.7002C60.6473 74.5823 54.1191 81.0848 54.1191 89.106C54.1191 97.1272 60.6473 103.63 68.7002 103.63H234.983C243.036 103.63 249.564 97.1272 249.564 89.106C249.564 81.0848 243.036 74.5823 234.983 74.5823Z" fill="white" stroke="#1E1E1E" stroke-width="3" stroke-miterlimit="10"/>
    <path d="M167.242 94.635V85.8127H168.603V94.635H167.242ZM167.934 84.3423C167.669 84.3423 167.44 84.2523 167.248 84.0723C167.059 83.8923 166.965 83.676 166.965 83.4233C166.965 83.1705 167.059 82.9542 167.248 82.7742C167.44 82.5943 167.669 82.5043 167.934 82.5043C168.199 82.5043 168.426 82.5943 168.615 82.7742C168.807 82.9542 168.903 83.1705 168.903 83.4233C168.903 83.676 168.807 83.8923 168.615 84.0723C168.426 84.2523 168.199 84.3423 167.934 84.3423Z" fill="#1E1E1E"/>
    <path d="M161.2 94.635V85.8127H162.515V87.1452H162.607C162.769 86.7087 163.061 86.3545 163.484 86.0826C163.907 85.8107 164.383 85.6748 164.914 85.6748C165.014 85.6748 165.139 85.6767 165.289 85.6805C165.439 85.6844 165.552 85.6901 165.629 85.6978V87.0763C165.583 87.0648 165.477 87.0476 165.312 87.0246C165.15 86.9978 164.979 86.9844 164.799 86.9844C164.368 86.9844 163.984 87.0744 163.645 87.2543C163.311 87.4305 163.046 87.6755 162.85 87.9895C162.657 88.2997 162.561 88.6539 162.561 89.0521V94.635H161.2Z" fill="#1E1E1E"/>
    <path d="M154.657 94.8418C154.096 94.8418 153.586 94.7365 153.129 94.5259C152.671 94.3114 152.308 94.0032 152.039 93.6011C151.77 93.1952 151.635 92.7051 151.635 92.1307C151.635 91.6253 151.735 91.2156 151.935 90.9016C152.135 90.5838 152.402 90.3349 152.737 90.1549C153.071 89.9749 153.44 89.8409 153.844 89.7528C154.251 89.6609 154.661 89.5882 155.072 89.5346C155.61 89.4656 156.047 89.4139 156.381 89.3795C156.719 89.3412 156.965 89.278 157.119 89.1899C157.277 89.1019 157.356 88.9487 157.356 88.7304V88.6845C157.356 88.1178 157.2 87.6774 156.888 87.3634C156.581 87.0494 156.114 86.8924 155.487 86.8924C154.838 86.8924 154.328 87.0341 153.959 87.3175C153.59 87.6008 153.331 87.9033 153.181 88.225L151.889 87.7655C152.12 87.2294 152.427 86.812 152.812 86.5134C153.2 86.2109 153.623 86.0003 154.08 85.8816C154.542 85.759 154.995 85.6978 155.441 85.6978C155.726 85.6978 156.052 85.7322 156.421 85.8011C156.794 85.8662 157.154 86.0022 157.5 86.2089C157.85 86.4157 158.14 86.7278 158.37 87.1452C158.601 87.5626 158.716 88.1216 158.716 88.8223V94.635H157.356V93.4403H157.286C157.194 93.6318 157.04 93.8366 156.825 94.0549C156.61 94.2731 156.323 94.4589 155.966 94.612C155.608 94.7652 155.172 94.8418 154.657 94.8418ZM154.864 93.6241C155.403 93.6241 155.856 93.5188 156.225 93.3082C156.598 93.0976 156.879 92.8257 157.067 92.4926C157.259 92.1595 157.356 91.8091 157.356 91.4415V90.2008C157.298 90.2698 157.171 90.3329 156.975 90.3904C156.783 90.444 156.56 90.4919 156.306 90.534C156.056 90.5723 155.812 90.6067 155.574 90.6374C155.339 90.6642 155.149 90.6871 155.003 90.7063C154.649 90.7522 154.319 90.8269 154.011 90.9303C153.707 91.0299 153.461 91.1811 153.273 91.384C153.088 91.5832 152.996 91.855 152.996 92.1997C152.996 92.6706 153.171 93.0268 153.521 93.268C153.875 93.5054 154.322 93.6241 154.864 93.6241Z" fill="#1E1E1E"/>
    <path d="M141.674 94.635V82.8718H145.802C146.625 82.8718 147.304 83.0135 147.838 83.2969C148.372 83.5764 148.77 83.9536 149.032 84.4284C149.293 84.8994 149.424 85.422 149.424 85.9964C149.424 86.5019 149.333 86.9192 149.153 87.2485C148.976 87.5779 148.741 87.8382 148.449 88.0297C148.161 88.2212 147.848 88.3628 147.509 88.4547V88.5696C147.871 88.5926 148.234 88.7189 148.599 88.9487C148.964 89.1784 149.27 89.5078 149.516 89.9366C149.762 90.3655 149.885 90.8901 149.885 91.5104C149.885 92.1001 149.751 92.6304 149.481 93.1014C149.212 93.5724 148.788 93.9457 148.207 94.2214C147.627 94.4971 146.871 94.635 145.941 94.635H141.674ZM143.104 93.3714H145.941C146.875 93.3714 147.538 93.1914 147.93 92.8315C148.326 92.4677 148.524 92.0273 148.524 91.5104C148.524 91.1122 148.422 90.7446 148.219 90.4076C148.015 90.0668 147.725 89.7949 147.348 89.592C146.971 89.3852 146.525 89.2818 146.01 89.2818H143.104V93.3714ZM143.104 88.0412H145.756C146.187 88.0412 146.575 87.9569 146.921 87.7885C147.271 87.62 147.548 87.3826 147.752 87.0762C147.959 86.7699 148.063 86.41 148.063 85.9964C148.063 85.4795 147.882 85.041 147.521 84.6811C147.159 84.3173 146.587 84.1354 145.802 84.1354H143.104V88.0412Z" fill="#1E1E1E"/>
    <path d="M300.634 64.5228H295.363C294.915 64.5228 294.472 64.6107 294.059 64.7815C293.646 64.9524 293.27 65.2027 292.954 65.5183C292.638 65.8339 292.388 66.2084 292.217 66.6205C292.047 67.0327 291.96 67.4742 291.961 67.9199V86.6949C291.958 91.1863 290.166 95.493 286.977 98.6685C283.788 101.844 279.464 103.628 274.955 103.63H264.295C263.935 103.63 263.589 103.487 263.334 103.233C263.079 102.979 262.935 102.634 262.935 102.275V83.2551C262.935 82.8956 263.079 82.5509 263.333 82.2965C263.588 82.0421 263.934 81.8989 264.295 81.8984H271.792C272.694 81.8984 273.56 81.5413 274.198 80.9059C274.836 80.2704 275.194 79.4084 275.194 78.5097V27.1113C275.194 26.2126 274.836 25.3507 274.198 24.7152C273.56 24.0797 272.694 23.7227 271.792 23.7227H264.295C263.934 23.7221 263.588 23.5789 263.333 23.3246C263.079 23.0702 262.935 22.7254 262.935 22.366V3.35461C262.935 2.99534 263.079 2.65079 263.334 2.39676C263.589 2.14272 263.935 2 264.295 2H274.955C279.466 2.00056 283.792 3.78583 286.982 6.96318C290.172 10.1405 291.964 14.4498 291.965 18.9432V38.5659C291.965 39.4646 292.323 40.3265 292.961 40.962C293.599 41.5975 294.465 41.9545 295.367 41.9545H300.638C300.999 41.9545 301.345 42.0972 301.6 42.3511C301.856 42.6051 301.999 42.9497 302 43.3091V63.1682C302 63.3465 301.964 63.523 301.895 63.6877C301.826 63.8523 301.726 64.0018 301.599 64.1276C301.472 64.2535 301.321 64.3531 301.156 64.4209C300.99 64.4887 300.813 64.5233 300.634 64.5228Z" fill="#EA4335" stroke="#1E1E1E" stroke-width="3" stroke-miterlimit="10"/>
    <path d="M245.497 53.9544C245.004 54.1099 244.488 54.1869 243.971 54.1823C242.819 54.1823 241.988 53.8869 241.477 53.2963C240.967 52.7056 240.713 51.7826 240.714 50.5274V39.8396H247.076V34.1635H240.714V26.8644H234.049V34.1635H229.52V39.8396H234.049V51.75C234.049 54.4478 234.812 56.5685 236.339 58.1119C237.866 59.6554 239.968 60.4236 242.647 60.4165C243.443 60.4194 244.238 60.343 245.018 60.1886C245.789 60.0334 246.546 59.8198 247.283 59.5496V53.0684C246.724 53.432 246.125 53.7293 245.497 53.9544Z" fill="#1E1E1E"/>
    <path d="M219.757 44.6041L215.938 43.6925C215.065 43.4897 214.237 43.1287 213.496 42.6276C212.816 42.1547 212.476 41.5974 212.478 40.9556C212.478 40.3465 212.817 39.8225 213.496 39.3838C214.174 38.945 215.09 38.7256 216.243 38.7256C217.204 38.7192 218.153 38.9266 219.023 39.3326C219.887 39.7373 220.59 40.4473 221.134 41.4625L226.832 38.9791C226.268 37.7533 225.433 36.67 224.39 35.8098C223.324 34.9576 222.095 34.3287 220.779 33.9611C219.255 33.537 217.678 33.3319 216.096 33.3519C214.344 33.3307 212.606 33.658 210.983 34.3146C209.548 34.8775 208.285 35.8032 207.318 37.0004C206.419 38.1569 205.944 39.5847 205.971 41.0472C205.946 42.3478 206.309 43.6266 207.014 44.7212C207.713 45.794 208.643 46.6978 209.736 47.3666C210.831 48.0494 212.036 48.538 213.299 48.8106L216.35 49.4688C217.056 49.6033 217.753 49.7811 218.437 50.0012C219.062 50.1909 219.643 50.5014 220.148 50.915C220.376 51.1117 220.556 51.3576 220.675 51.6339C220.794 51.9103 220.849 52.2099 220.834 52.5102C220.859 52.9347 220.743 53.3556 220.504 53.7081C220.266 54.0606 219.917 54.3252 219.513 54.4612C218.572 54.8272 217.569 55.008 216.56 54.9937C215.34 55.0224 214.137 54.6968 213.1 54.0565C212.069 53.3768 211.257 52.4154 210.761 51.2877L204.797 53.8798C205.29 55.1611 206.034 56.3324 206.984 57.3259C208.068 58.4388 209.381 59.3036 210.833 59.8605C212.411 60.5009 214.32 60.8218 216.558 60.8232C218.458 60.8487 220.344 60.4953 222.104 59.7838C223.663 59.1682 225.032 58.1544 226.073 56.8446C227.057 55.5766 227.577 54.0124 227.549 52.4101C227.564 51.5099 227.398 50.6158 227.062 49.7801C226.725 48.9444 226.225 48.184 225.59 47.5433C224.278 46.193 222.334 45.2133 219.757 44.6041Z" fill="#1E1E1E"/>
    <path d="M196.772 35.1197C194.866 33.9412 192.525 33.3519 189.75 33.3519C187.171 33.3519 184.881 33.9859 182.881 35.2539C180.896 36.5022 179.266 38.2384 178.149 40.2954C176.995 42.3916 176.398 44.7476 176.417 47.1387C176.417 49.7741 177.003 52.1219 178.173 54.1822C179.311 56.2114 180.983 57.8937 183.008 59.049C185.06 60.2304 187.393 60.8218 190.004 60.8232C192.887 60.8232 195.31 60.2062 197.274 58.9723C199.266 57.7144 200.91 55.9807 202.058 53.9287L196.663 51.2941C196.041 52.3554 195.171 53.2513 194.127 53.9053C193.041 54.5982 191.701 54.944 190.107 54.9426C188.815 54.9601 187.542 54.6367 186.416 54.0054C185.297 53.3629 184.387 52.4127 183.797 51.2685C183.37 50.4529 183.086 49.5704 182.958 48.6594H202.417C202.451 48.489 202.485 48.2121 202.52 47.8224C202.554 47.4326 202.571 46.9704 202.571 46.4294C202.6 44.1567 202.095 41.9087 201.096 39.8651C200.132 37.9092 198.633 36.2643 196.772 35.1197ZM183.221 43.946C183.354 43.4827 183.531 43.0328 183.747 42.602C184.314 41.4532 185.185 40.4803 186.266 39.7884C187.322 39.1167 188.551 38.7646 189.803 38.7746C190.698 38.7599 191.586 38.9236 192.416 39.256C193.138 39.5509 193.802 39.9713 194.377 40.4977C194.897 40.9758 195.327 41.5427 195.647 42.1718C195.936 42.7224 196.11 43.3262 196.156 43.946H183.221Z" fill="#1E1E1E"/>
    <path d="M151.307 60.0118H158.178V45.5158H172.78V39.0281H158.178V30.2104H174.407V23.7228H151.307V60.0118Z" fill="#1E1E1E"/>
    <path d="M133.88 50.9895H133.474L126.909 34.1635H119.327L130.318 60.0117H136.934L148.025 34.1635H140.545L133.88 50.9895Z" fill="#1E1E1E"/>
    <path d="M113.344 35.1197C111.443 33.9369 109.103 33.3455 106.322 33.3455C103.743 33.3455 101.453 33.9795 99.4512 35.2474C97.4664 36.4966 95.837 38.2325 94.7191 40.2889C93.5633 42.3872 92.9663 44.7453 92.9849 47.1386C92.9849 49.774 93.5701 52.1218 94.7405 54.1821C95.8788 56.2113 97.5501 57.8937 99.5752 59.0489C101.628 60.2303 103.96 60.8217 106.572 60.8231C109.454 60.8231 111.878 60.2061 113.842 58.9722C115.84 57.7168 117.492 55.9829 118.645 53.9287L113.25 51.294C112.626 52.3566 111.753 53.2527 110.705 53.9052C109.622 54.5982 108.282 54.9439 106.687 54.9425C105.395 54.96 104.122 54.6367 102.996 54.0053C101.877 53.3628 100.968 52.4126 100.377 51.2684C99.9502 50.4528 99.6667 49.5703 99.5388 48.6593H118.997C119.032 48.4889 119.066 48.2121 119.1 47.8223C119.134 47.4325 119.151 46.9703 119.151 46.4293C119.179 44.1564 118.674 41.9084 117.674 39.865C116.709 37.9077 115.208 36.2625 113.344 35.1197ZM99.7911 43.9395C99.9242 43.4762 100.1 43.0263 100.317 42.5956C100.884 41.4467 101.755 40.4739 102.836 39.782C103.892 39.1103 105.12 38.7581 106.373 38.7681C107.27 38.7526 108.16 38.9163 108.992 39.2495C109.714 39.5444 110.377 39.9649 110.951 40.4912C111.476 40.9678 111.911 41.5349 112.234 42.1653C112.523 42.7159 112.697 43.3197 112.743 43.9395H99.7911Z" fill="#1E1E1E"/>
    <path d="M80.957 26.0294C78.1586 24.4917 74.8264 23.7228 70.9604 23.7228H58.6437V60.0118H70.9604C74.8264 60.0118 78.1593 59.2514 80.9591 57.7307C83.6927 56.2742 85.9389 54.0531 87.4211 51.341C88.9307 48.6048 89.6855 45.4455 89.6855 41.863C89.6855 38.2805 88.9321 35.1312 87.4253 32.4148C85.9309 29.7108 83.685 27.4937 80.957 26.0294ZM81.4146 47.9992C80.5273 49.7451 79.1153 51.1716 77.3753 52.0801C75.5763 53.0428 73.3375 53.5241 70.6589 53.5241H65.5269V30.2211H70.6589C73.3375 30.2211 75.5763 30.7024 77.3753 31.6651C79.1112 32.5653 80.5246 33.979 81.421 35.7119C82.3191 37.4513 82.7681 39.5038 82.7681 41.8694C82.7638 44.2009 82.3126 46.2442 81.4146 47.9992Z" fill="#1E1E1E"/>
    <path d="M3.35996 64.5228H8.63302C9.08043 64.523 9.52339 64.6112 9.93657 64.7821C10.3498 64.953 10.7251 65.2034 11.041 65.5189C11.357 65.8344 11.6074 66.2089 11.778 66.6209C11.9486 67.0329 12.0359 67.4743 12.0351 67.9199V86.6949C12.0359 88.9196 12.4767 91.1224 13.3322 93.1775C14.1877 95.2325 15.4412 97.0996 17.0212 98.6722C18.6011 100.245 20.4765 101.492 22.5404 102.342C24.6042 103.193 26.816 103.63 29.0496 103.63H39.709C39.8876 103.63 40.0645 103.595 40.2295 103.526C40.3944 103.458 40.5444 103.359 40.6707 103.233C40.7969 103.107 40.8971 102.958 40.9655 102.793C41.0338 102.629 41.069 102.453 41.069 102.275V83.2551C41.069 82.8956 40.9258 82.5509 40.6708 82.2965C40.4158 82.0421 40.0699 81.8989 39.709 81.8984H32.2078C31.3056 81.8984 30.4402 81.5413 29.8022 80.9059C29.1642 80.2704 28.8058 79.4084 28.8058 78.5097V27.1113C28.8058 26.2126 29.1642 25.3507 29.8022 24.7152C30.4402 24.0797 31.3056 23.7227 32.2078 23.7227H39.7047C40.0656 23.7221 40.4115 23.5789 40.6665 23.3246C40.9215 23.0702 41.0647 22.7254 41.0647 22.366V3.35461C41.0647 2.99534 40.9214 2.65079 40.6664 2.39676C40.4113 2.14272 40.0654 2 39.7047 2H29.0496C26.8154 1.99944 24.603 2.43728 22.5387 3.2885C20.4745 4.13973 18.5988 5.38767 17.0188 6.96105C15.4388 8.53443 14.1854 10.4024 13.3303 12.4584C12.4752 14.5143 12.0351 16.7179 12.0351 18.9432V38.5659C12.0345 39.4644 11.6759 40.326 11.038 40.9614C10.4001 41.5967 9.53513 41.9539 8.63302 41.9545H3.35996C2.99928 41.9545 2.65337 42.0972 2.39832 42.3513C2.14328 42.6053 2 42.9498 2 43.3091V63.1682C2 63.5274 2.14328 63.872 2.39832 64.126C2.65337 64.38 2.99928 64.5228 3.35996 64.5228Z" fill="#EA4335" stroke="#1E1E1E" stroke-width="3" stroke-miterlimit="10"/>
</svg>
    