<svg width="1080" height="1080" viewBox="0 0 1080 1080" fill="none" xmlns="http://www.w3.org/2000/svg">
<path d="M0 540C0 241.766 241.766 0 540 0C838.234 0 1080 241.766 1080 540C1080 838.234 838.234 1080 540 1080C241.766 1080 0 838.234 0 540Z" fill="#1E1E1E"/>
<rect x="65" y="65" width="950.4" height="950.4" rx="475.2" fill="white"/>
<path fill-rule="evenodd" clip-rule="evenodd" d="M565.3 290V315.303H540V340.055H514.7V464.917H489.95V490.22H465.2V514.973H439.9V540.275H415.15V565.028H365.1V540.275H339.8V514.973H315.05V490.22H289.75V464.917H265V539.725H289.75V589.78H315.05V615.083H339.8V639.835H365.1V665.138H390.4V790H439.9V765.248H414.6V739.945H439.9V714.642H465.2V689.89H489.95V714.642H514.7V739.945H540V790H590.05V765.248H565.3V639.835H590.05V615.083H614.8V565.028H665.4V589.78H689.6V540.275H640.1V514.973H614.8V464.917H789.7V440.165H639.55V414.862H815V340.055H789.7V315.303H764.95V290.55H639.55V290H565.3ZM614.8 340.055V365.358H590.05V340.055H614.8Z" fill="#1E1E1E"/>
</svg>
