<svg width="790" height="312" viewBox="0 0 790 312" fill="none" xmlns="http://www.w3.org/2000/svg">
<path d="M36.608 4.352H48.896L83.712 96H71.808L62.592 70.784H23.04L13.824 96H1.92L36.608 4.352ZM58.88 60.544L46.72 27.52L43.008 17.664H42.496L38.912 27.52L26.752 60.544H58.88ZM151.087 98.048C145.284 98.048 139.994 96.5547 135.215 93.568C130.522 90.5813 126.81 86.4853 124.079 81.28C121.348 75.9893 119.983 70.016 119.983 63.36C119.983 56.7893 121.348 50.8587 124.079 45.568C126.81 40.2773 130.522 36.1387 135.215 33.152C139.994 30.1653 145.284 28.672 151.087 28.672C156.122 28.672 160.602 29.824 164.527 32.128C168.452 34.3467 171.439 37.12 173.487 40.448H173.999L173.487 31.36V4.352H184.367V96H173.999V86.4H173.487C171.439 89.6427 168.452 92.416 164.527 94.72C160.602 96.9387 156.122 98.048 151.087 98.048ZM152.367 88.192C156.207 88.192 159.748 87.168 162.991 85.12C166.319 83.072 168.964 80.1707 170.927 76.416C172.975 72.6613 173.999 68.3093 173.999 63.36C173.999 58.4107 172.975 54.0587 170.927 50.304C168.964 46.5493 166.319 43.648 162.991 41.6C159.748 39.552 156.207 38.528 152.367 38.528C148.612 38.528 145.071 39.552 141.743 41.6C138.415 43.648 135.727 46.592 133.679 50.432C131.716 54.1867 130.735 58.496 130.735 63.36C130.735 68.224 131.716 72.576 133.679 76.416C135.727 80.1707 138.415 83.072 141.743 85.12C145.071 87.168 148.612 88.192 152.367 88.192ZM228.87 98.048C222.641 98.048 217.051 96.5547 212.102 93.568C207.153 90.5813 203.27 86.4853 200.454 81.28C197.723 75.9893 196.358 70.0587 196.358 63.488C196.358 57.1733 197.638 51.3707 200.198 46.08C202.843 40.7893 206.555 36.5653 211.334 33.408C216.113 30.2507 221.659 28.672 227.974 28.672C234.374 28.672 239.921 30.1227 244.614 33.024C249.307 35.84 252.891 39.7653 255.366 44.8C257.926 49.8347 259.206 55.5947 259.206 62.08C259.206 63.36 259.078 64.4693 258.822 65.408H207.238C207.494 70.3573 208.689 74.5387 210.822 77.952C212.955 81.3653 215.643 83.9253 218.886 85.632C222.214 87.3387 225.67 88.192 229.254 88.192C237.617 88.192 244.059 84.2667 248.582 76.416L257.798 80.896C254.982 86.1867 251.142 90.368 246.278 93.44C241.499 96.512 235.697 98.048 228.87 98.048ZM247.686 56.448C247.515 53.7173 246.747 50.9867 245.382 48.256C244.017 45.5253 241.841 43.2213 238.854 41.344C235.953 39.4667 232.283 38.528 227.846 38.528C222.726 38.528 218.374 40.192 214.79 43.52C211.291 46.7627 208.987 51.072 207.878 56.448H247.686ZM302.132 98.048C295.817 98.048 290.143 96.5547 285.108 93.568C280.073 90.496 276.148 86.3573 273.332 81.152C270.516 75.8613 269.108 69.9307 269.108 63.36C269.108 56.7893 270.516 50.8587 273.332 45.568C276.148 40.2773 280.073 36.1387 285.108 33.152C290.143 30.1653 295.817 28.672 302.132 28.672C309.215 28.672 315.145 30.336 319.924 33.664C324.788 36.9067 328.244 41.2587 330.292 46.72L320.436 50.816C318.815 46.8053 316.383 43.776 313.14 41.728C309.983 39.5947 306.143 38.528 301.62 38.528C297.78 38.528 294.196 39.5947 290.868 41.728C287.54 43.776 284.852 46.6773 282.804 50.432C280.841 54.1867 279.86 58.496 279.86 63.36C279.86 68.224 280.841 72.5333 282.804 76.288C284.852 80.0427 287.54 82.9867 290.868 85.12C294.196 87.168 297.78 88.192 301.62 88.192C306.228 88.192 310.196 87.1253 313.524 84.992C316.852 82.8587 319.327 79.8293 320.948 75.904L330.676 80C328.457 85.376 324.873 89.728 319.924 93.056C315.06 96.384 309.129 98.048 302.132 98.048ZM362.678 98.048C357.899 98.048 353.633 97.1093 349.878 95.232C346.123 93.3547 343.222 90.7947 341.174 87.552C339.126 84.224 338.102 80.4693 338.102 76.288C338.102 69.376 340.705 64 345.91 60.16C351.115 56.2347 357.686 54.272 365.622 54.272C369.547 54.272 373.174 54.6987 376.502 55.552C379.915 56.4053 382.518 57.3867 384.31 58.496V54.528C384.31 49.664 382.603 45.7813 379.19 42.88C375.777 39.8933 371.467 38.4 366.262 38.4C362.593 38.4 359.222 39.2107 356.15 40.832C353.078 42.368 350.646 44.544 348.854 47.36L340.662 41.216C343.222 37.2907 346.721 34.2187 351.158 32C355.681 29.7813 360.673 28.672 366.134 28.672C375.009 28.672 381.963 31.0187 386.998 35.712C392.118 40.32 394.678 46.6347 394.678 54.656V96H384.31V86.656H383.798C381.921 89.8133 379.105 92.5013 375.35 94.72C371.595 96.9387 367.371 98.048 362.678 98.048ZM363.702 88.448C367.371 88.448 370.785 87.5093 373.942 85.632C377.099 83.7547 379.617 81.2373 381.494 78.08C383.371 74.9227 384.31 71.4667 384.31 67.712C382.262 66.3467 379.745 65.2373 376.758 64.384C373.771 63.5307 370.614 63.104 367.286 63.104C361.313 63.104 356.79 64.3413 353.718 66.816C350.731 69.2907 349.238 72.4907 349.238 76.416C349.238 80 350.603 82.9013 353.334 85.12C356.065 87.3387 359.521 88.448 363.702 88.448ZM436.837 98.048C431.034 98.048 425.744 96.5547 420.965 93.568C416.272 90.5813 412.56 86.4853 409.829 81.28C407.098 75.9893 405.733 70.016 405.733 63.36C405.733 56.7893 407.098 50.8587 409.829 45.568C412.56 40.2773 416.272 36.1387 420.965 33.152C425.744 30.1653 431.034 28.672 436.837 28.672C441.872 28.672 446.352 29.824 450.277 32.128C454.202 34.3467 457.189 37.12 459.237 40.448H459.749L459.237 31.36V4.352H470.117V96H459.749V86.4H459.237C457.189 89.6427 454.202 92.416 450.277 94.72C446.352 96.9387 441.872 98.048 436.837 98.048ZM438.117 88.192C441.957 88.192 445.498 87.168 448.741 85.12C452.069 83.072 454.714 80.1707 456.677 76.416C458.725 72.6613 459.749 68.3093 459.749 63.36C459.749 58.4107 458.725 54.0587 456.677 50.304C454.714 46.5493 452.069 43.648 448.741 41.6C445.498 39.552 441.957 38.528 438.117 38.528C434.362 38.528 430.821 39.552 427.493 41.6C424.165 43.648 421.477 46.592 419.429 50.432C417.466 54.1867 416.485 58.496 416.485 63.36C416.485 68.224 417.466 72.576 419.429 76.416C421.477 80.1707 424.165 83.072 427.493 85.12C430.821 87.168 434.362 88.192 438.117 88.192ZM514.62 98.048C508.391 98.048 502.801 96.5547 497.852 93.568C492.903 90.5813 489.02 86.4853 486.204 81.28C483.473 75.9893 482.108 70.0587 482.108 63.488C482.108 57.1733 483.388 51.3707 485.948 46.08C488.593 40.7893 492.305 36.5653 497.084 33.408C501.863 30.2507 507.409 28.672 513.724 28.672C520.124 28.672 525.671 30.1227 530.364 33.024C535.057 35.84 538.641 39.7653 541.116 44.8C543.676 49.8347 544.956 55.5947 544.956 62.08C544.956 63.36 544.828 64.4693 544.572 65.408H492.988C493.244 70.3573 494.439 74.5387 496.572 77.952C498.705 81.3653 501.393 83.9253 504.636 85.632C507.964 87.3387 511.42 88.192 515.004 88.192C523.367 88.192 529.809 84.2667 534.332 76.416L543.548 80.896C540.732 86.1867 536.892 90.368 532.028 93.44C527.249 96.512 521.447 98.048 514.62 98.048ZM533.436 56.448C533.265 53.7173 532.497 50.9867 531.132 48.256C529.767 45.5253 527.591 43.2213 524.604 41.344C521.703 39.4667 518.033 38.528 513.596 38.528C508.476 38.528 504.124 40.192 500.54 43.52C497.041 46.7627 494.737 51.072 493.628 56.448H533.436ZM38.144 205.048C31.744 205.048 25.984 203.512 20.864 200.44C15.744 197.368 11.7333 193.187 8.832 187.896C6.016 182.605 4.608 176.76 4.608 170.36C4.608 163.96 6.016 158.115 8.832 152.824C11.7333 147.533 15.744 143.352 20.864 140.28C25.984 137.208 31.744 135.672 38.144 135.672C44.544 135.672 50.304 137.208 55.424 140.28C60.544 143.352 64.512 147.533 67.328 152.824C70.2293 158.115 71.68 163.96 71.68 170.36C71.68 176.76 70.2293 182.605 67.328 187.896C64.512 193.187 60.544 197.368 55.424 200.44C50.304 203.512 44.544 205.048 38.144 205.048ZM38.144 195.192C42.1547 195.192 45.8667 194.211 49.28 192.248C52.7787 190.2 55.552 187.299 57.6 183.544C59.7333 179.789 60.8 175.395 60.8 170.36C60.8 165.325 59.7333 160.931 57.6 157.176C55.552 153.421 52.7787 150.563 49.28 148.6C45.8667 146.552 42.1547 145.528 38.144 145.528C34.1333 145.528 30.3787 146.552 26.88 148.6C23.3813 150.563 20.5653 153.421 18.432 157.176C16.384 160.931 15.36 165.325 15.36 170.36C15.36 175.395 16.384 179.789 18.432 183.544C20.5653 187.299 23.3813 190.2 26.88 192.248C30.3787 194.211 34.1333 195.192 38.144 195.192ZM89.991 147.576H77.959V137.72H89.991V130.68C89.991 126.584 90.9297 123 92.807 119.928C94.6843 116.856 97.2017 114.509 100.359 112.888C103.516 111.181 107.015 110.328 110.855 110.328C114.524 110.328 117.724 110.84 120.455 111.864V122.488C118.919 121.891 117.468 121.421 116.103 121.08C114.738 120.653 113.116 120.44 111.239 120.44C108.423 120.44 105.991 121.464 103.943 123.512C101.895 125.475 100.871 128.248 100.871 131.832V137.72H117.639V147.576H100.871V203H89.991V147.576ZM167.089 125.688C164.956 125.688 163.121 124.92 161.585 123.384C160.049 121.848 159.281 120.013 159.281 117.88C159.281 115.747 160.049 113.955 161.585 112.504C163.121 110.968 164.956 110.2 167.089 110.2C169.222 110.2 171.057 110.968 172.593 112.504C174.129 113.955 174.897 115.747 174.897 117.88C174.897 120.013 174.129 121.848 172.593 123.384C171.142 124.92 169.308 125.688 167.089 125.688ZM161.713 137.72H172.465V203H161.713V137.72ZM189.564 137.72H199.932V147.32H200.444C202.236 144.077 205.095 141.347 209.02 139.128C212.945 136.824 217.127 135.672 221.564 135.672C229.415 135.672 235.388 137.976 239.484 142.584C243.665 147.107 245.756 153.293 245.756 161.144V203H234.876V162.808C234.876 156.749 233.425 152.355 230.524 149.624C227.623 146.893 223.655 145.528 218.62 145.528C215.121 145.528 211.964 146.509 209.148 148.472C206.417 150.435 204.284 153.037 202.748 156.28C201.212 159.437 200.444 162.765 200.444 166.264V203H189.564V137.72ZM261.314 137.72H271.682V147.32H272.194C273.986 144.077 276.845 141.347 280.77 139.128C284.695 136.824 288.877 135.672 293.314 135.672C301.165 135.672 307.138 137.976 311.234 142.584C315.415 147.107 317.506 153.293 317.506 161.144V203H306.626V162.808C306.626 156.749 305.175 152.355 302.274 149.624C299.373 146.893 295.405 145.528 290.37 145.528C286.871 145.528 283.714 146.509 280.898 148.472C278.167 150.435 276.034 153.037 274.498 156.28C272.962 159.437 272.194 162.765 272.194 166.264V203H261.314V137.72ZM363.144 205.048C356.744 205.048 350.984 203.512 345.864 200.44C340.744 197.368 336.733 193.187 333.832 187.896C331.016 182.605 329.608 176.76 329.608 170.36C329.608 163.96 331.016 158.115 333.832 152.824C336.733 147.533 340.744 143.352 345.864 140.28C350.984 137.208 356.744 135.672 363.144 135.672C369.544 135.672 375.304 137.208 380.424 140.28C385.544 143.352 389.512 147.533 392.328 152.824C395.229 158.115 396.68 163.96 396.68 170.36C396.68 176.76 395.229 182.605 392.328 187.896C389.512 193.187 385.544 197.368 380.424 200.44C375.304 203.512 369.544 205.048 363.144 205.048ZM363.144 195.192C367.155 195.192 370.867 194.211 374.28 192.248C377.779 190.2 380.552 187.299 382.6 183.544C384.733 179.789 385.8 175.395 385.8 170.36C385.8 165.325 384.733 160.931 382.6 157.176C380.552 153.421 377.779 150.563 374.28 148.6C370.867 146.552 367.155 145.528 363.144 145.528C359.133 145.528 355.379 146.552 351.88 148.6C348.381 150.563 345.565 153.421 343.432 157.176C341.384 160.931 340.36 165.325 340.36 170.36C340.36 175.395 341.384 179.789 343.432 183.544C345.565 187.299 348.381 190.2 351.88 192.248C355.379 194.211 359.133 195.192 363.144 195.192ZM400.271 137.72H411.919L432.143 190.2H432.399L452.879 137.72H464.271L437.647 203H426.639L400.271 137.72ZM492.803 205.048C488.024 205.048 483.758 204.109 480.003 202.232C476.248 200.355 473.347 197.795 471.299 194.552C469.251 191.224 468.227 187.469 468.227 183.288C468.227 176.376 470.83 171 476.035 167.16C481.24 163.235 487.811 161.272 495.747 161.272C499.672 161.272 503.299 161.699 506.627 162.552C510.04 163.405 512.643 164.387 514.435 165.496V161.528C514.435 156.664 512.728 152.781 509.315 149.88C505.902 146.893 501.592 145.4 496.387 145.4C492.718 145.4 489.347 146.211 486.275 147.832C483.203 149.368 480.771 151.544 478.979 154.36L470.787 148.216C473.347 144.291 476.846 141.219 481.283 139C485.806 136.781 490.798 135.672 496.259 135.672C505.134 135.672 512.088 138.019 517.123 142.712C522.243 147.32 524.803 153.635 524.803 161.656V203H514.435V193.656H513.923C512.046 196.813 509.23 199.501 505.475 201.72C501.72 203.939 497.496 205.048 492.803 205.048ZM493.827 195.448C497.496 195.448 500.91 194.509 504.067 192.632C507.224 190.755 509.742 188.237 511.619 185.08C513.496 181.923 514.435 178.467 514.435 174.712C512.387 173.347 509.87 172.237 506.883 171.384C503.896 170.531 500.739 170.104 497.411 170.104C491.438 170.104 486.915 171.341 483.843 173.816C480.856 176.291 479.363 179.491 479.363 183.416C479.363 187 480.728 189.901 483.459 192.12C486.19 194.339 489.646 195.448 493.827 195.448ZM563.777 204.024C561.132 204.024 558.657 203.597 556.353 202.744C554.134 201.891 552.257 200.739 550.721 199.288C549.014 197.667 547.734 195.789 546.881 193.656C546.028 191.523 545.601 188.92 545.601 185.848V147.576H534.209V137.72H545.601V119.288H556.481V137.72H572.353V147.576H556.481V183.16C556.481 186.744 557.164 189.389 558.529 191.096C560.15 192.973 562.497 193.912 565.569 193.912C568.044 193.912 570.433 193.187 572.737 191.736V202.36C571.457 202.957 570.134 203.384 568.769 203.64C567.489 203.896 565.825 204.024 563.777 204.024ZM592.589 125.688C590.456 125.688 588.621 124.92 587.085 123.384C585.549 121.848 584.781 120.013 584.781 117.88C584.781 115.747 585.549 113.955 587.085 112.504C588.621 110.968 590.456 110.2 592.589 110.2C594.722 110.2 596.557 110.968 598.093 112.504C599.629 113.955 600.397 115.747 600.397 117.88C600.397 120.013 599.629 121.848 598.093 123.384C596.642 124.92 594.808 125.688 592.589 125.688ZM587.213 137.72H597.965V203H587.213V137.72ZM644.519 205.048C638.119 205.048 632.359 203.512 627.239 200.44C622.119 197.368 618.108 193.187 615.207 187.896C612.391 182.605 610.983 176.76 610.983 170.36C610.983 163.96 612.391 158.115 615.207 152.824C618.108 147.533 622.119 143.352 627.239 140.28C632.359 137.208 638.119 135.672 644.519 135.672C650.919 135.672 656.679 137.208 661.799 140.28C666.919 143.352 670.887 147.533 673.703 152.824C676.604 158.115 678.055 163.96 678.055 170.36C678.055 176.76 676.604 182.605 673.703 187.896C670.887 193.187 666.919 197.368 661.799 200.44C656.679 203.512 650.919 205.048 644.519 205.048ZM644.519 195.192C648.53 195.192 652.242 194.211 655.655 192.248C659.154 190.2 661.927 187.299 663.975 183.544C666.108 179.789 667.175 175.395 667.175 170.36C667.175 165.325 666.108 160.931 663.975 157.176C661.927 153.421 659.154 150.563 655.655 148.6C652.242 146.552 648.53 145.528 644.519 145.528C640.508 145.528 636.754 146.552 633.255 148.6C629.756 150.563 626.94 153.421 624.807 157.176C622.759 160.931 621.735 165.325 621.735 170.36C621.735 175.395 622.759 179.789 624.807 183.544C626.94 187.299 629.756 190.2 633.255 192.248C636.754 194.211 640.508 195.192 644.519 195.192ZM689.439 137.72H699.807V147.32H700.319C702.111 144.077 704.97 141.347 708.895 139.128C712.82 136.824 717.002 135.672 721.439 135.672C729.29 135.672 735.263 137.976 739.359 142.584C743.54 147.107 745.631 153.293 745.631 161.144V203H734.751V162.808C734.751 156.749 733.3 152.355 730.399 149.624C727.498 146.893 723.53 145.528 718.495 145.528C714.996 145.528 711.839 146.509 709.023 148.472C706.292 150.435 704.159 153.037 702.623 156.28C701.087 159.437 700.319 162.765 700.319 166.264V203H689.439V137.72Z" fill="#F0F0F0"/>
<path d="M5.76 242.04H17.568V247.992H18.336C19.68 245.88 21.632 244.12 24.192 242.712C26.752 241.24 29.696 240.504 33.024 240.504C37.44 240.504 41.44 241.624 45.024 243.864C48.672 246.04 51.52 249.112 53.568 253.08C55.616 257.048 56.64 261.528 56.64 266.52C56.64 271.576 55.616 276.088 53.568 280.056C51.52 283.96 48.672 287.032 45.024 289.272C41.44 291.448 37.44 292.536 33.024 292.536C29.696 292.536 26.72 291.832 24.096 290.424C21.536 289.016 19.616 287.256 18.336 285.144H17.568L18.336 292.056V311.736H5.76V242.04ZM30.816 280.92C33.184 280.92 35.392 280.312 37.44 279.096C39.488 277.88 41.12 276.184 42.336 274.008C43.552 271.832 44.16 269.336 44.16 266.52C44.16 263.704 43.552 261.208 42.336 259.032C41.12 256.856 39.488 255.192 37.44 254.04C35.392 252.824 33.184 252.216 30.816 252.216C28.512 252.216 26.336 252.824 24.288 254.04C22.24 255.192 20.608 256.856 19.392 259.032C18.176 261.208 17.568 263.704 17.568 266.52C17.568 269.336 18.176 271.832 19.392 274.008C20.608 276.184 22.24 277.88 24.288 279.096C26.336 280.312 28.512 280.92 30.816 280.92ZM89.7555 292.536C84.6995 292.536 80.1875 291.416 76.2195 289.176C72.2515 286.872 69.1475 283.768 66.9075 279.864C64.7315 275.896 63.6435 271.448 63.6435 266.52C63.6435 261.656 64.7315 257.24 66.9075 253.272C69.1475 249.304 72.2515 246.2 76.2195 243.96C80.1875 241.656 84.6995 240.504 89.7555 240.504C94.7475 240.504 99.2275 241.656 103.196 243.96C107.164 246.2 110.236 249.304 112.412 253.272C114.652 257.24 115.772 261.656 115.772 266.52C115.772 271.448 114.652 275.896 112.412 279.864C110.236 283.768 107.164 286.872 103.196 289.176C99.2275 291.416 94.7475 292.536 89.7555 292.536ZM89.7555 280.92C92.1875 280.92 94.4275 280.344 96.4755 279.192C98.5235 278.04 100.156 276.376 101.372 274.2C102.588 272.024 103.196 269.464 103.196 266.52C103.196 263.64 102.588 261.112 101.372 258.936C100.156 256.76 98.5235 255.096 96.4755 253.944C94.4275 252.792 92.1875 252.216 89.7555 252.216C87.3235 252.216 85.0835 252.792 83.0355 253.944C80.9875 255.096 79.3235 256.76 78.0435 258.936C76.8275 261.112 76.2195 263.64 76.2195 266.52C76.2195 269.4 76.8275 271.96 78.0435 274.2C79.3235 276.376 80.9875 278.04 83.0355 279.192C85.0835 280.344 87.3235 280.92 89.7555 280.92ZM118.985 242.04H133.097L141.545 273.816H142.217L152.009 242.04H164.873L174.665 273.816H175.337L183.785 242.04H197.705L182.057 291H168.521L158.537 259.32H157.865L147.977 291H134.537L118.985 242.04ZM226.432 292.536C221.568 292.536 217.184 291.416 213.28 289.176C209.376 286.936 206.304 283.864 204.064 279.96C201.888 275.992 200.8 271.544 200.8 266.616C200.8 261.944 201.888 257.624 204.064 253.656C206.24 249.624 209.248 246.424 213.088 244.056C216.928 241.688 221.216 240.504 225.952 240.504C231.008 240.504 235.36 241.592 239.008 243.768C242.656 245.944 245.408 248.92 247.264 252.696C249.184 256.472 250.144 260.664 250.144 265.272C250.144 266.744 250.048 268.152 249.856 269.496H213.088C213.728 273.4 215.264 276.376 217.696 278.424C220.192 280.408 223.168 281.4 226.624 281.4C229.504 281.4 231.968 280.792 234.016 279.576C236.128 278.296 237.792 276.6 239.008 274.488L249.184 279.48C244.192 288.184 236.608 292.536 226.432 292.536ZM238.048 260.568C237.92 259.032 237.344 257.528 236.32 256.056C235.36 254.52 233.984 253.272 232.192 252.312C230.464 251.288 228.416 250.776 226.048 250.776C223.04 250.776 220.448 251.672 218.272 253.464C216.16 255.192 214.624 257.56 213.664 260.568H238.048ZM259.832 242.04H271.64V248.568H272.408C273.624 246.264 275.512 244.376 278.072 242.904C280.632 241.368 283.448 240.6 286.52 240.6C288.76 240.6 290.808 240.952 292.664 241.656V254.232C290.936 253.592 289.464 253.144 288.248 252.888C287.096 252.568 285.848 252.408 284.504 252.408C280.792 252.408 277.848 253.752 275.672 256.44C273.496 259.128 272.408 262.52 272.408 266.616V291H259.832V242.04ZM320.838 292.536C315.974 292.536 311.59 291.416 307.686 289.176C303.782 286.936 300.71 283.864 298.47 279.96C296.294 275.992 295.206 271.544 295.206 266.616C295.206 261.944 296.294 257.624 298.47 253.656C300.646 249.624 303.654 246.424 307.494 244.056C311.334 241.688 315.622 240.504 320.358 240.504C325.414 240.504 329.766 241.592 333.414 243.768C337.062 245.944 339.814 248.92 341.67 252.696C343.59 256.472 344.55 260.664 344.55 265.272C344.55 266.744 344.454 268.152 344.262 269.496H307.494C308.134 273.4 309.67 276.376 312.102 278.424C314.598 280.408 317.574 281.4 321.03 281.4C323.91 281.4 326.374 280.792 328.422 279.576C330.534 278.296 332.198 276.6 333.414 274.488L343.59 279.48C338.598 288.184 331.014 292.536 320.838 292.536ZM332.454 260.568C332.326 259.032 331.75 257.528 330.726 256.056C329.766 254.52 328.39 253.272 326.598 252.312C324.87 251.288 322.822 250.776 320.454 250.776C317.446 250.776 314.854 251.672 312.678 253.464C310.566 255.192 309.03 257.56 308.07 260.568H332.454ZM375.731 292.536C371.315 292.536 367.283 291.448 363.635 289.272C360.051 287.032 357.203 283.96 355.091 280.056C353.043 276.088 352.019 271.576 352.019 266.52C352.019 261.528 353.043 257.048 355.091 253.08C357.203 249.112 360.051 246.04 363.635 243.864C367.283 241.624 371.315 240.504 375.731 240.504C379.059 240.504 382.003 241.24 384.563 242.712C387.123 244.12 389.075 245.88 390.419 247.992H391.187L390.419 241.08V222.264H402.899V291H391.187V285.144H390.419C389.139 287.256 387.187 289.016 384.563 290.424C382.003 291.832 379.059 292.536 375.731 292.536ZM377.843 280.92C380.211 280.92 382.419 280.312 384.467 279.096C386.515 277.88 388.147 276.184 389.363 274.008C390.579 271.832 391.187 269.336 391.187 266.52C391.187 263.704 390.579 261.208 389.363 259.032C388.147 256.856 386.515 255.192 384.467 254.04C382.419 252.824 380.211 252.216 377.843 252.216C375.539 252.216 373.363 252.824 371.315 254.04C369.267 255.192 367.635 256.856 366.419 259.032C365.203 261.208 364.595 263.704 364.595 266.52C364.595 269.336 365.203 271.832 366.419 274.008C367.635 276.184 369.267 277.88 371.315 279.096C373.363 280.312 375.539 280.92 377.843 280.92ZM465.033 292.536C461.705 292.536 458.729 291.832 456.105 290.424C453.545 289.016 451.625 287.256 450.345 285.144H449.577V291H437.769V222.264H450.345V241.08L449.577 247.992H450.345C451.689 245.88 453.641 244.12 456.201 242.712C458.761 241.24 461.705 240.504 465.033 240.504C469.449 240.504 473.449 241.624 477.033 243.864C480.681 246.04 483.529 249.112 485.577 253.08C487.625 257.048 488.649 261.528 488.649 266.52C488.649 271.576 487.625 276.088 485.577 280.056C483.529 283.96 480.681 287.032 477.033 289.272C473.449 291.448 469.449 292.536 465.033 292.536ZM462.825 280.92C465.193 280.92 467.401 280.312 469.449 279.096C471.497 277.88 473.129 276.184 474.345 274.008C475.561 271.832 476.169 269.336 476.169 266.52C476.169 263.704 475.561 261.208 474.345 259.032C473.129 256.856 471.497 255.192 469.449 254.04C467.401 252.824 465.193 252.216 462.825 252.216C460.521 252.216 458.345 252.824 456.297 254.04C454.249 255.192 452.617 256.856 451.401 259.032C450.185 261.208 449.577 263.704 449.577 266.52C449.577 269.336 450.185 271.832 451.401 274.008C452.617 276.184 454.249 277.88 456.297 279.096C458.345 280.312 460.521 280.92 462.825 280.92ZM511.721 288.696L491.081 242.04H505.385L518.057 272.472H518.825L531.017 242.04H545.033L514.793 311.736H501.257L511.721 288.696ZM589.721 288.696L569.081 242.04H583.385L596.057 272.472H596.825L609.017 242.04H623.033L592.793 311.736H579.257L589.721 288.696ZM651.506 292.536C646.45 292.536 641.938 291.416 637.97 289.176C634.002 286.872 630.898 283.768 628.658 279.864C626.482 275.896 625.394 271.448 625.394 266.52C625.394 261.656 626.482 257.24 628.658 253.272C630.898 249.304 634.002 246.2 637.97 243.96C641.938 241.656 646.45 240.504 651.506 240.504C656.498 240.504 660.978 241.656 664.946 243.96C668.914 246.2 671.986 249.304 674.162 253.272C676.402 257.24 677.522 261.656 677.522 266.52C677.522 271.448 676.402 275.896 674.162 279.864C671.986 283.768 668.914 286.872 664.946 289.176C660.978 291.416 656.498 292.536 651.506 292.536ZM651.506 280.92C653.938 280.92 656.178 280.344 658.226 279.192C660.274 278.04 661.906 276.376 663.122 274.2C664.338 272.024 664.946 269.464 664.946 266.52C664.946 263.64 664.338 261.112 663.122 258.936C661.906 256.76 660.274 255.096 658.226 253.944C656.178 252.792 653.938 252.216 651.506 252.216C649.074 252.216 646.834 252.792 644.786 253.944C642.738 255.096 641.074 256.76 639.794 258.936C638.578 261.112 637.97 263.64 637.97 266.52C637.97 269.4 638.578 271.96 639.794 274.2C641.074 276.376 642.738 278.04 644.786 279.192C646.834 280.344 649.074 280.92 651.506 280.92ZM704.339 292.536C698.451 292.536 693.971 290.712 690.899 287.064C687.827 283.416 686.291 278.328 686.291 271.8V242.04H698.867V270.264C698.867 273.592 699.667 276.216 701.267 278.136C702.867 279.992 704.979 280.92 707.603 280.92C711.187 280.92 714.035 279.608 716.147 276.984C718.259 274.36 719.315 271.032 719.315 267V242.04H731.891V291H720.083V284.856H719.315C717.843 287.224 715.763 289.112 713.075 290.52C710.451 291.864 707.539 292.536 704.339 292.536ZM745.296 242.04V222.264H758.16V242.04L757.008 267.384H746.448L745.296 242.04ZM751.728 291.576C749.424 291.576 747.44 290.776 745.776 289.176C744.176 287.512 743.376 285.528 743.376 283.224C743.376 280.92 744.176 278.968 745.776 277.368C747.44 275.768 749.424 274.968 751.728 274.968C754.032 274.968 755.984 275.768 757.584 277.368C759.248 278.968 760.08 280.92 760.08 283.224C760.08 285.528 759.248 287.512 757.584 289.176C755.984 290.776 754.032 291.576 751.728 291.576Z" fill="#F0F0F0"/>
</svg>
