<svg width="30" height="38" viewBox="0 0 30 38" fill="none" xmlns="http://www.w3.org/2000/svg">
    <path d="M22.0706 0.612305H22.3492C22.4361 1.68507 22.3043 2.76431 21.9617 3.78462C21.6192 4.80492 21.073 5.74505 20.3563 6.54802C19.7579 7.40322 18.953 8.09328 18.0164 8.55409C17.0798 9.01489 16.0419 9.23148 14.9992 9.18373C14.9407 8.12721 15.1009 7.06998 15.4696 6.07815C15.8383 5.08633 16.4076 4.18123 17.1421 3.41945C18.4241 1.95814 20.1597 0.969607 22.0706 0.612305Z" fill="white"/>
    <path d="M30 27.6121C29.2967 29.7327 28.2625 31.7288 26.9357 33.5264C25.7786 35.1335 24.3429 37.2978 21.7714 37.2978C19.6286 37.2978 18.1071 35.8621 15.8357 35.8192C13.5643 35.7764 12.1286 37.0192 9.94286 37.3192H9.19286C7.62718 36.9312 6.25618 35.9867 5.33571 34.6621C2.20394 30.905 0.336814 26.2559 0 21.3764V19.7478C0.000862899 17.9964 0.431058 16.2719 1.25292 14.7253C2.07479 13.1787 3.26326 11.8572 4.71429 10.8764C6.2922 9.85047 8.18292 9.41765 10.05 9.65494C10.9451 9.81366 11.8212 10.065 12.6643 10.4049C13.478 10.8277 14.3657 11.0896 15.2786 11.1764C15.9253 11.0894 16.5544 10.9013 17.1429 10.6192C18.9786 9.75059 21.013 9.38809 23.0357 9.56923C24.2431 9.68699 25.4093 10.0709 26.4505 10.6934C27.4917 11.3159 28.3819 12.1615 29.0571 13.1692C27.7143 13.907 26.6231 15.0299 25.9242 16.3934C25.2253 17.7568 24.9507 19.2983 25.1357 20.8192C25.2264 22.2941 25.7309 23.7136 26.5912 24.915C27.4515 26.1165 28.6329 27.0512 30 27.6121Z" fill="white"/>
</svg>
    