<svg width="30" height="31" viewBox="0 0 30 31" fill="none" xmlns="http://www.w3.org/2000/svg">
<path d="M30 15.6539C30 14.5686 29.9027 13.525 29.7217 12.5232H15.3061V18.4507H23.5435C23.1819 20.3571 22.0965 21.9713 20.4685 23.0566V26.9109H25.4361C28.3302 24.2393 30 20.3154 30 15.6539Z" fill="#4285F4"/>
<path d="M15.3061 30.6123C19.4388 30.6123 22.9035 29.2486 25.4361 26.9109L20.4685 23.0566C19.1048 23.975 17.3654 24.5315 15.3061 24.5315C11.3265 24.5315 7.94529 21.846 6.73471 18.2282H1.64195V22.18C4.16051 27.1752 9.32284 30.6123 15.3061 30.6123Z" fill="#34A853"/>
<path d="M6.73469 18.2143C6.42858 17.2959 6.24768 16.3218 6.24768 15.3061C6.24768 14.2903 6.42858 13.3163 6.73469 12.3979V8.44614H1.64193C0.598333 10.5055 0 12.8293 0 15.3061C0 17.7828 0.598333 20.1066 1.64193 22.166L5.60761 19.0769L6.73469 18.2143Z" fill="#FBBC05"/>
<path d="M15.3061 6.09462C17.5603 6.09462 19.564 6.87384 21.1641 8.37663L25.5473 3.99351C22.8897 1.51669 19.4388 0 15.3061 0C9.32284 0 4.16049 3.43686 1.64193 8.44614L6.73469 12.3979C7.94527 8.78009 11.3265 6.09462 15.3061 6.09462Z" fill="#EA4335"/>
</svg>
