<svg width="1000" height="1000" viewBox="0 0 1000 1000" fill="none" xmlns="http://www.w3.org/2000/svg">
<rect width="1000" height="1000" rx="111" fill="#007EBB"/>
<path fill-rule="evenodd" clip-rule="evenodd" d="M861.222 861.222H712.828V608.474C712.828 539.178 686.497 500.451 631.649 500.451C571.981 500.451 540.807 540.751 540.807 608.474V861.222H397.796V379.74H540.807V444.596C540.807 444.596 583.806 365.031 685.981 365.031C788.107 365.031 861.222 427.396 861.222 556.378V861.222ZM227.185 316.694C178.474 316.694 139 276.912 139 227.847C139 178.783 178.474 139 227.185 139C275.897 139 315.347 178.783 315.347 227.847C315.347 276.912 275.897 316.694 227.185 316.694ZM153.342 861.222H302.464V379.74H153.342V861.222Z" fill="white"/>
</svg>
